<svg width="97" height="92" viewBox="0 0 97 92" fill="none" xmlns="http://www.w3.org/2000/svg">
<path d="M0 12C0 5.37259 5.37258 0 12 0H85C91.6274 0 97 5.37258 97 12V80C97 86.6274 91.6274 92 85 92H12C5.37258 92 0 86.6274 0 80V12Z" fill="#DEF2FD"/>
<circle cx="48.5" cy="46.5" r="41.507" fill="white" stroke="white" stroke-width="1.98599"/>
<g filter="url(#filter0_d_464_306)">
<path d="M26.5415 29.1521C25.64 29.1521 24.7478 29.2836 23.865 29.5466C22.9822 29.7907 22.1182 30.0913 21.273 30.4481L19.9207 27.0109C20.9162 26.5789 21.968 26.2409 23.0761 25.9967C24.1843 25.7337 25.3676 25.6023 26.626 25.6023C28.1098 25.6023 29.4246 25.837 30.5703 26.3066C31.7349 26.7574 32.7115 27.4335 33.5004 28.3351C34.3081 29.2179 34.9185 30.3073 35.3317 31.6032C35.7637 32.8805 35.9797 34.3361 35.9797 35.9702C35.9797 38.0362 35.6322 39.8487 34.9373 41.4077C34.2423 42.9479 33.1717 44.1499 31.7255 45.0139C30.298 45.8591 28.4667 46.2817 26.2316 46.2817C25.0859 46.2817 24.0434 46.1972 23.1043 46.0282C22.184 45.8591 21.2449 45.5962 20.287 45.2393V41.6613C21.3576 41.9993 22.3436 42.2623 23.2452 42.4501C24.1655 42.6379 25.0765 42.7319 25.978 42.7319C26.842 42.7319 27.6027 42.6285 28.2601 42.4219C28.9363 42.1966 29.4997 41.8773 29.9505 41.464C30.4201 41.032 30.7863 40.4967 31.0493 39.8581C31.3123 39.2008 31.4625 38.4495 31.5001 37.6042H22.7662V34.1107H31.4719C31.4531 33.3218 31.3216 32.6269 31.0775 32.0259C30.8333 31.406 30.4952 30.8895 30.0632 30.4763C29.6312 30.0443 29.1147 29.7156 28.5137 29.4902C27.9314 29.2648 27.274 29.1521 26.5415 29.1521Z" fill="#FF0004"/>
<path d="M40.1518 46V25.884H56.0699V46H51.8157V29.4339H44.406V46H40.1518Z" fill="#00273A"/>
<path d="M61.1445 25.884H64.9761V35.6039C64.9761 36.0735 64.9667 36.5994 64.948 37.1816C64.9292 37.7639 64.9104 38.3368 64.8916 38.9002C64.8728 39.4449 64.854 39.9239 64.8353 40.3371C64.8165 40.7315 64.7977 41.0039 64.7789 41.1541H64.8634L74.1608 25.884H79.2602V46H75.4567V36.3364C75.4567 35.8293 75.4661 35.2752 75.4849 34.6742C75.5037 34.0544 75.5225 33.4627 75.5413 32.8992C75.5788 32.3358 75.607 31.8474 75.6258 31.4342C75.6633 31.0022 75.6915 30.7205 75.7103 30.589H75.5976L66.2721 46H61.1445V25.884Z" fill="#30ACEE"/>
</g>
<g filter="url(#filter1_d_464_306)">
<path d="M26.8415 65.3925V73.9226H23.0445V68.5132H9.39114V49.9446H13.3181V65.2364H20.1578V49.9446H24.0848V65.3925H26.8415ZM40.3974 68.5132H29.7087V49.9446H40.3974V53.1694H33.6357V57.2524H39.9292V60.4772H33.6357V65.2624H40.3974V68.5132ZM59.4749 68.5132H55.548V60.5032H48.1881V68.5132H44.2611V49.9446H48.1881V57.2264H55.548V49.9446H59.4749V68.5132ZM71.2987 68.5132H67.3718V53.2214H62.3265V49.9446H76.344V53.2214H71.2987V68.5132ZM85.1368 49.9446C87.5294 49.9446 89.2718 50.4647 90.3641 51.505C91.4737 52.5279 92.0285 53.9409 92.0285 55.7441C92.0285 56.5589 91.9072 57.3391 91.6644 58.0846C91.4217 58.8128 91.0143 59.4716 90.4421 60.0611C89.8873 60.6333 89.1505 61.084 88.2316 61.4135C87.3127 61.7429 86.1771 61.9076 84.8247 61.9076H83.1343V68.5132H79.2073V49.9446H85.1368ZM84.9288 53.1694H83.1343V58.6828H84.4346C85.1802 58.6828 85.8217 58.5874 86.3591 58.3967C86.8966 58.206 87.3127 57.9026 87.6074 57.4865C87.9022 57.0704 88.0495 56.5329 88.0495 55.8741C88.0495 54.9552 87.7981 54.279 87.2954 53.8456C86.7926 53.3948 86.0037 53.1694 84.9288 53.1694Z" fill="#FED700"/>
</g>
<defs>
<filter id="filter0_d_464_306" x="19.4304" y="24.6217" width="59.8299" height="21.66" filterUnits="userSpaceOnUse" color-interpolation-filters="sRGB">
<feFlood flood-opacity="0" result="BackgroundImageFix"/>
<feColorMatrix in="SourceAlpha" type="matrix" values="0 0 0 0 0 0 0 0 0 0 0 0 0 0 0 0 0 0 127 0" result="hardAlpha"/>
<feOffset dx="-0.490266" dy="-0.980531"/>
<feComposite in2="hardAlpha" operator="out"/>
<feColorMatrix type="matrix" values="0 0 0 0 0 0 0 0 0 0 0 0 0 0 0 0 0 0 1 0"/>
<feBlend mode="normal" in2="BackgroundImageFix" result="effect1_dropShadow_464_306"/>
<feBlend mode="normal" in="SourceGraphic" in2="effect1_dropShadow_464_306" result="shape"/>
</filter>
<filter id="filter1_d_464_306" x="8.90085" y="48.9641" width="83.1277" height="24.9585" filterUnits="userSpaceOnUse" color-interpolation-filters="sRGB">
<feFlood flood-opacity="0" result="BackgroundImageFix"/>
<feColorMatrix in="SourceAlpha" type="matrix" values="0 0 0 0 0 0 0 0 0 0 0 0 0 0 0 0 0 0 127 0" result="hardAlpha"/>
<feOffset dx="-0.490266" dy="-0.980531"/>
<feComposite in2="hardAlpha" operator="out"/>
<feColorMatrix type="matrix" values="0 0 0 0 0 0 0 0 0 0 0 0 0 0 0 0 0 0 1 0"/>
<feBlend mode="normal" in2="BackgroundImageFix" result="effect1_dropShadow_464_306"/>
<feBlend mode="normal" in="SourceGraphic" in2="effect1_dropShadow_464_306" result="shape"/>
</filter>
</defs>
</svg>
