<svg width="97" height="92" viewBox="0 0 97 92" fill="none" xmlns="http://www.w3.org/2000/svg">
<path d="M0 12C0 5.37259 5.37258 0 12 0H85C91.6274 0 97 5.37258 97 12V80C97 86.6274 91.6274 92 85 92H12C5.37258 92 0 86.6274 0 80V12Z" fill="#DD3A33"/>
<path d="M19.5644 18V7.29H28.0394V18H25.7744V9.18H21.8294V18H19.5644ZM33.9361 9.66C34.6961 9.66 35.3461 9.805 35.8861 10.095C36.4361 10.385 36.8611 10.805 37.1611 11.355C37.4611 11.905 37.6111 12.58 37.6111 13.38V14.46H32.3311C32.3511 15.09 32.5361 15.585 32.8861 15.945C33.2461 16.305 33.7411 16.485 34.3711 16.485C34.9011 16.485 35.3811 16.435 35.8111 16.335C36.2411 16.225 36.6861 16.06 37.1461 15.84V17.565C36.7461 17.765 36.3211 17.91 35.8711 18C35.4311 18.1 34.8961 18.15 34.2661 18.15C33.4461 18.15 32.7211 18 32.0911 17.7C31.4611 17.39 30.9661 16.925 30.6061 16.305C30.2461 15.685 30.0661 14.905 30.0661 13.965C30.0661 13.005 30.2261 12.21 30.5461 11.58C30.8761 10.94 31.3311 10.46 31.9111 10.14C32.4911 9.82 33.1661 9.66 33.9361 9.66ZM33.9511 11.25C33.5211 11.25 33.1611 11.39 32.8711 11.67C32.5911 11.95 32.4261 12.385 32.3761 12.975H35.5111C35.5111 12.645 35.4511 12.35 35.3311 12.09C35.2211 11.83 35.0511 11.625 34.8211 11.475C34.5911 11.325 34.3011 11.25 33.9511 11.25ZM43.9834 9.66C44.9034 9.66 45.6484 10.02 46.2184 10.74C46.7884 11.45 47.0734 12.5 47.0734 13.89C47.0734 14.82 46.9384 15.605 46.6684 16.245C46.3984 16.875 46.0284 17.35 45.5584 17.67C45.0884 17.99 44.5434 18.15 43.9234 18.15C43.5334 18.15 43.1934 18.1 42.9034 18C42.6234 17.9 42.3834 17.77 42.1834 17.61C41.9834 17.45 41.8084 17.28 41.6584 17.1H41.5384C41.5784 17.29 41.6084 17.49 41.6284 17.7C41.6484 17.9 41.6584 18.1 41.6584 18.3V21.6H39.4234V9.81H41.2384L41.5534 10.875H41.6584C41.8084 10.655 41.9884 10.455 42.1984 10.275C42.4084 10.085 42.6584 9.935 42.9484 9.825C43.2484 9.715 43.5934 9.66 43.9834 9.66ZM43.2634 11.445C42.8734 11.445 42.5634 11.525 42.3334 11.685C42.1034 11.845 41.9334 12.09 41.8234 12.42C41.7234 12.74 41.6684 13.145 41.6584 13.635V13.875C41.6584 14.405 41.7084 14.855 41.8084 15.225C41.9084 15.585 42.0784 15.86 42.3184 16.05C42.5584 16.24 42.8834 16.335 43.2934 16.335C43.6334 16.335 43.9134 16.24 44.1334 16.05C44.3534 15.86 44.5184 15.58 44.6284 15.21C44.7384 14.84 44.7934 14.39 44.7934 13.86C44.7934 13.06 44.6684 12.46 44.4184 12.06C44.1784 11.65 43.7934 11.445 43.2634 11.445ZM56.1756 11.955C56.1756 12.395 56.0356 12.77 55.7556 13.08C55.4856 13.39 55.0806 13.59 54.5406 13.68V13.74C55.1106 13.81 55.5656 14.005 55.9056 14.325C56.2556 14.645 56.4306 15.055 56.4306 15.555C56.4306 15.905 56.3606 16.23 56.2206 16.53C56.0906 16.83 55.8806 17.09 55.5906 17.31C55.3006 17.53 54.9256 17.7 54.4656 17.82C54.0156 17.94 53.4656 18 52.8156 18H48.9156V9.81H52.8156C53.4556 9.81 54.0256 9.88 54.5256 10.02C55.0356 10.15 55.4356 10.37 55.7256 10.68C56.0256 10.99 56.1756 11.415 56.1756 11.955ZM54.1206 15.435C54.1206 15.115 53.9956 14.885 53.7456 14.745C53.4956 14.595 53.1206 14.52 52.6206 14.52H51.1506V16.455H52.6656C53.0856 16.455 53.4306 16.38 53.7006 16.23C53.9806 16.07 54.1206 15.805 54.1206 15.435ZM53.9106 12.135C53.9106 11.875 53.8106 11.685 53.6106 11.565C53.4106 11.445 53.1156 11.385 52.7256 11.385H51.1506V13.005H52.4706C52.9406 13.005 53.2956 12.94 53.5356 12.81C53.7856 12.67 53.9106 12.445 53.9106 12.135ZM58.3492 18V9.81H60.5842V12.975H61.6642C62.5042 12.975 63.1942 13.065 63.7342 13.245C64.2742 13.415 64.6742 13.68 64.9342 14.04C65.2042 14.4 65.3392 14.85 65.3392 15.39C65.3392 15.92 65.2142 16.38 64.9642 16.77C64.7242 17.16 64.3392 17.465 63.8092 17.685C63.2892 17.895 62.5992 18 61.7392 18H58.3492ZM61.6192 16.455C62.0592 16.455 62.4142 16.375 62.6842 16.215C62.9642 16.055 63.1042 15.79 63.1042 15.42C63.1042 15.1 62.9742 14.87 62.7142 14.73C62.4642 14.59 62.0892 14.52 61.5892 14.52H60.5842V16.455H61.6192ZM66.5242 18V9.81H68.7592V18H66.5242ZM74.4683 9.66C75.2283 9.66 75.8783 9.805 76.4183 10.095C76.9683 10.385 77.3933 10.805 77.6933 11.355C77.9933 11.905 78.1433 12.58 78.1433 13.38V14.46H72.8633C72.8833 15.09 73.0683 15.585 73.4183 15.945C73.7783 16.305 74.2733 16.485 74.9033 16.485C75.4333 16.485 75.9133 16.435 76.3433 16.335C76.7733 16.225 77.2183 16.06 77.6783 15.84V17.565C77.2783 17.765 76.8533 17.91 76.4033 18C75.9633 18.1 75.4283 18.15 74.7983 18.15C73.9783 18.15 73.2533 18 72.6233 17.7C71.9933 17.39 71.4983 16.925 71.1383 16.305C70.7783 15.685 70.5983 14.905 70.5983 13.965C70.5983 13.005 70.7583 12.21 71.0783 11.58C71.4083 10.94 71.8633 10.46 72.4433 10.14C73.0233 9.82 73.6983 9.66 74.4683 9.66ZM74.4833 11.25C74.0533 11.25 73.6933 11.39 73.4033 11.67C73.1233 11.95 72.9583 12.385 72.9083 12.975H76.0433C76.0433 12.645 75.9833 12.35 75.8633 12.09C75.7533 11.83 75.5833 11.625 75.3533 11.475C75.1233 11.325 74.8333 11.25 74.4833 11.25Z" fill="white"/>
<path d="M67 23L31 46L44.5 45.5V85L67 23Z" fill="white" stroke="white"/>
</svg>
