<svg width="97" height="92" viewBox="0 0 97 92" fill="none" xmlns="http://www.w3.org/2000/svg">
<path d="M0 12C0 5.37259 5.37258 0 12 0H85C91.6274 0 97 5.37258 97 12V80C97 86.6274 91.6274 92 85 92H12C5.37258 92 0 86.6274 0 80V12Z" fill="#FFFDD1"/>
<path d="M29.2398 23.0291C29.2398 23.8241 29.2398 24.6191 29.2398 25.4382C28.8423 25.4631 28.4448 25.4879 28.0353 25.5135C24.3886 25.8717 21.535 26.6529 18.2782 28.2991C17.7789 28.5506 17.7789 28.5506 17.2694 28.8073C15.692 29.6433 14.8275 30.1927 13.8213 31.702C14.2983 32.02 14.7753 32.338 15.2668 32.6657C15.5407 32.4737 15.8146 32.2818 16.0968 32.0841C21.8542 28.1337 27.5858 26.9772 34.5004 28.0695C39.3866 29.3901 44.4083 32.4405 47.0703 36.8393C50.2847 42.6401 51.4833 48.3838 50.1109 54.9634C49.0483 58.0367 47.39 60.7858 45.622 63.5027C46.3375 63.9797 46.3375 63.9797 47.0675 64.4664C50.2341 60.0964 51.9208 56.0755 52.6593 50.7192C52.8494 49.5297 52.8494 49.5297 53.3313 48.566C66.6876 48.566 80.0439 48.566 93.8049 48.566C93.8049 49.202 93.8049 49.838 93.8049 50.4933C81.0846 50.4933 68.6057 50.5 55.5 50.5C55 53 55.0201 52.8784 54.7768 55.3116C53.6 59.5857 51.5116 63.2562 48.9948 66.8755C49.3774 67.0109 49.76 67.1463 50.1542 67.2858C51.404 67.8392 51.404 67.8392 52.1267 68.9835C52.3676 70.2483 52.3676 70.2483 51.7051 71.3625C51.4467 71.6308 51.1883 71.8992 50.9221 72.1756C49.9681 72.0166 48.9948 72.1756 48.0311 71.6938C47.7131 70.7398 47.3951 69.7857 47.0675 68.8028C46.7408 69.0239 46.4141 69.245 46.0775 69.4729C39.4417 73.8477 32.4372 76.2402 24.4366 74.7353C17.2244 73.1961 11.2921 69.5342 7.13593 63.322C3.39252 57.0359 1.98689 49.5903 3.76313 42.4227C5.03649 38.4215 7.02895 34.6206 9.48485 31.2202C9.10721 31.081 8.72958 30.9419 8.3405 30.7986C7.0757 30.2565 7.0757 30.2565 6.11204 29.2929C6.27091 27.7042 6.41207 27.0655 7.55753 25.92C9.06325 26.1007 9.06325 26.1007 10.4485 26.4019C10.7665 27.3559 11.0845 28.3099 11.4122 29.2929C11.7389 29.0717 12.0656 28.8506 12.4022 28.6228C17.5357 25.2384 22.9439 22.6977 29.2398 23.0291ZM11.4122 33.1475C6.89255 37.7731 5.4172 43.7537 5.14839 50.0115C5.24195 55.7764 8.12761 61.8147 12.0747 65.9721C17.7135 71.0325 23.988 73.1336 31.4833 72.8419C36.1537 72.519 40.4391 70.631 44.1765 67.8392C44.6535 67.1236 44.6535 67.1236 45.1402 66.3937C44.5042 65.9167 43.8682 65.4396 43.2129 64.9482C42.8439 65.2277 42.8439 65.2277 42.4675 65.5128C36.8161 69.561 30.7973 70.6514 23.9924 69.5387C19.5702 68.3776 15.1113 65.7665 12.3758 62.0572C8.90781 55.976 7.40386 50.1256 8.85056 43.1153C9.86965 40.1384 11.4735 37.5939 13.3395 35.0748C13.0215 34.4388 12.7035 33.8028 12.3758 33.1475C12.0578 33.1475 11.7398 33.1475 11.4122 33.1475Z" fill="#013D57"/>
<path d="M27.7943 27.8473C27.7943 34.8435 27.7943 41.8397 27.7943 49.0478C29.5434 49.0478 31.2924 49.0478 33.0944 49.0478C33.0944 46.8218 33.0944 44.5957 33.0944 42.3022C35.9565 42.3022 38.8186 42.3022 41.7674 42.3022C41.9264 50.2524 42.0854 58.2026 42.2492 66.3937C34.2679 70.3843 34.2679 70.3843 29.3302 70.3989C28.701 70.4069 28.0718 70.415 27.4235 70.4233C25.3852 70.2483 25.3852 70.2483 20.5669 68.8028C20.5669 55.7645 20.5669 42.7262 20.5669 29.2928C25.3852 27.8473 25.3852 27.8473 27.7943 27.8473Z" fill="#FDD900"/>
<path d="M27.7942 27.8473C34.7544 27.8473 39.5821 29.2214 44.7485 33.8702C49.3885 38.7365 50.6794 44.6839 50.5738 51.1859C50.3621 56.3172 47.8186 60.7854 44.3269 64.4663C43.2127 65.43 43.2127 65.43 41.7672 65.9118C41.7672 58.1207 41.7672 50.3295 41.7672 42.3022C38.9052 42.3022 36.0431 42.3022 33.0943 42.3022C33.0943 44.5283 33.0943 46.7543 33.0943 49.0478C31.3453 49.0478 29.5962 49.0478 27.7942 49.0478C27.7942 42.0517 27.7942 35.0555 27.7942 27.8473Z" fill="#0593C8"/>
<path d="M27.7942 27.8473C33.0943 27.8473 33.0943 27.8473 36.9489 28.811C36.7899 33.2631 36.6309 37.7152 36.4671 42.3022C35.3541 42.3022 34.2411 42.3022 33.0943 42.3022C33.0943 44.5283 33.0943 46.7543 33.0943 49.0478C31.3453 49.0478 29.5962 49.0478 27.7942 49.0478C27.7942 42.0517 27.7942 35.0555 27.7942 27.8473Z" fill="#013D57"/>
<path d="M20.5668 29.7747C20.5668 42.4949 20.5668 55.2152 20.5668 68.321C15.1786 66.5249 11.9412 62.4423 9.36432 57.5382C7.27703 52.791 7.17855 46.7007 8.82226 41.7903C10.6428 37.6023 15.3061 29.7747 20.5668 29.7747Z" fill="#0091C7"/>
<path d="M57.8604 45.7747V43.4619H58.824V37.8148L57.6676 38.1618V35.849L62.6786 34.3457V43.4619H63.6423V45.7747H57.8604ZM64.6513 45.7747V44.0401L68.4481 40.012C68.8978 39.5494 69.1933 39.1575 69.3347 38.8363C69.4888 38.5151 69.5659 38.2132 69.5659 37.9305C69.5659 37.5579 69.4824 37.288 69.3154 37.121C69.1483 36.9411 68.9106 36.8512 68.6023 36.8512C68.2811 36.8512 68.0241 36.9733 67.8313 37.2174C67.6386 37.4615 67.5422 37.7892 67.5422 38.2003C67.5422 38.3802 67.5487 38.5408 67.5615 38.6821C67.5872 38.8235 67.6129 38.9841 67.6386 39.164H64.7091C64.6577 38.9712 64.6127 38.7657 64.5742 38.5472C64.5485 38.316 64.5356 38.0526 64.5356 37.757C64.5356 36.6906 64.9211 35.8554 65.692 35.2515C66.4758 34.6476 67.5294 34.3457 68.8528 34.3457C70.112 34.3457 71.0885 34.6284 71.7823 35.1937C72.489 35.759 72.8424 36.5428 72.8424 37.545C72.8424 38.059 72.7717 38.528 72.6304 38.952C72.489 39.376 72.2321 39.8385 71.8594 40.3396C71.4868 40.8407 70.9536 41.4639 70.2598 42.2091L68.2746 44.3484L67.2917 43.6546H71.2234V41.92H73.5362V45.7747H64.6513ZM78.9452 46.1409L76.2469 44.5412L78.6175 40.4938L79.7354 41.8044C79.5683 41.8429 79.3885 41.8751 79.1957 41.9008C79.0159 41.9136 78.836 41.92 78.6561 41.92C77.8209 41.92 77.0821 41.7658 76.4397 41.4575C75.8101 41.1363 75.3154 40.693 74.9556 40.1276C74.6087 39.5494 74.4353 38.8813 74.4353 38.1232C74.4353 37.3651 74.6087 36.7034 74.9556 36.1381C75.3154 35.5599 75.8101 35.1166 76.4397 34.8082C77.0821 34.487 77.8209 34.3264 78.6561 34.3264C79.5041 34.3264 80.2429 34.487 80.8725 34.8082C81.5149 35.1166 82.0096 35.5535 82.3565 36.1188C82.7163 36.6713 82.8962 37.3137 82.8962 38.0461C82.8962 38.4958 82.8319 38.9391 82.7034 39.376C82.5878 39.8128 82.3373 40.3653 81.9518 41.0335L78.9452 46.1409ZM78.6754 39.4145C78.958 39.4145 79.1829 39.2989 79.3499 39.0676C79.5298 38.8363 79.6197 38.5215 79.6197 38.1232C79.6197 37.7121 79.5298 37.3973 79.3499 37.1788C79.1829 36.9476 78.9516 36.8319 78.6561 36.8319C78.3734 36.8319 78.1421 36.9476 77.9623 37.1788C77.7952 37.3973 77.7117 37.7121 77.7117 38.1232C77.7117 38.5215 77.8016 38.8363 77.9815 39.0676C78.1614 39.2989 78.3927 39.4145 78.6754 39.4145ZM88.0135 45.9674C87.1398 45.9674 86.3753 45.8196 85.72 45.5241C85.0647 45.2157 84.5572 44.7982 84.1974 44.2714C83.8377 43.7317 83.6578 43.1278 83.6578 42.4597C83.6578 41.753 83.8312 41.1555 84.1781 40.6673C84.5379 40.1662 85.0519 39.755 85.72 39.4338L85.8164 40.1854C85.2125 39.8899 84.7499 39.5237 84.4287 39.0869C84.1075 38.65 83.9469 38.1232 83.9469 37.5065C83.9469 36.8897 84.1139 36.3437 84.448 35.8683C84.7949 35.38 85.2767 35.001 85.8935 34.7311C86.5102 34.4613 87.2169 34.3264 88.0135 34.3264C88.8101 34.3264 89.5104 34.4613 90.1143 34.7311C90.731 35.001 91.2128 35.38 91.5598 35.8683C91.9067 36.3437 92.0801 36.8897 92.0801 37.5065C92.0801 38.1232 91.9131 38.65 91.579 39.0869C91.2578 39.5237 90.7953 39.8899 90.1914 40.1854L90.2877 39.4338C90.9559 39.755 91.4698 40.1662 91.8296 40.6673C92.1894 41.1555 92.3692 41.753 92.3692 42.4597C92.3692 43.1278 92.1829 43.7317 91.8103 44.2714C91.4505 44.7982 90.943 45.2157 90.2877 45.5241C89.6453 45.8196 88.8872 45.9674 88.0135 45.9674ZM86.9342 42.2669C86.9342 42.6396 87.0306 42.9351 87.2233 43.1535C87.416 43.3591 87.6794 43.4619 88.0135 43.4619C88.3476 43.4619 88.611 43.3591 88.8037 43.1535C88.9964 42.9351 89.0928 42.6396 89.0928 42.2669C89.0928 41.8943 88.9964 41.6052 88.8037 41.3997C88.611 41.1812 88.3476 41.072 88.0135 41.072C87.6794 41.072 87.416 41.1812 87.2233 41.3997C87.0306 41.6052 86.9342 41.8943 86.9342 42.2669ZM87.1269 37.6992C87.1269 37.969 87.204 38.181 87.3582 38.3352C87.5124 38.4894 87.7308 38.5665 88.0135 38.5665C88.2833 38.5665 88.4953 38.4894 88.6495 38.3352C88.8165 38.181 88.9001 37.969 88.9001 37.6992C88.9001 37.4294 88.8165 37.2174 88.6495 37.0632C88.4953 36.909 88.2833 36.8319 88.0135 36.8319C87.7308 36.8319 87.5124 36.909 87.3582 37.0632C87.204 37.2174 87.1269 37.4294 87.1269 37.6992Z" fill="#FF0000"/>
<path d="M33.0945 42.3022C35.9565 42.3022 38.8186 42.3022 41.7674 42.3022C41.9264 50.2524 42.0854 58.2026 42.2492 66.3937C36.4673 69.2846 36.4673 69.2846 33.0945 69.7665C33.0945 60.7033 33.0945 51.6401 33.0945 42.3022Z" fill="#FBFBFC"/>
<path d="M27.7942 49.0478C29.5432 49.0478 31.2923 49.0478 33.0943 49.0478C33.0943 56.044 33.0943 63.0401 33.0943 70.2483C31.3453 70.2483 29.5962 70.2483 27.7942 70.2483C27.7942 63.2521 27.7942 56.256 27.7942 49.0478Z" fill="#ED1E25"/>
<path d="M58.1881 57.4206V53.2923H61.4549V57.4206H60.5818V54.0208H59.0612V57.4206H58.1881ZM63.8146 53.2923C64.3466 53.2923 64.7339 53.4079 64.9768 53.6392C65.2235 53.8666 65.3468 54.1808 65.3468 54.5817C65.3468 54.7628 65.3198 54.9363 65.2659 55.1021C65.2119 55.264 65.1213 55.4104 64.9941 55.5415C64.8708 55.6687 64.707 55.7689 64.5027 55.8421C64.2984 55.9154 64.0459 55.952 63.7452 55.952H63.3694V57.4206H62.4963V53.2923H63.8146ZM63.7684 54.0093H63.3694V55.235H63.6585C63.8242 55.235 63.9669 55.2138 64.0864 55.1714C64.2059 55.129 64.2984 55.0616 64.3639 54.9691C64.4294 54.8766 64.4622 54.7571 64.4622 54.6106C64.4622 54.4063 64.4063 54.256 64.2945 54.1596C64.1827 54.0594 64.0073 54.0093 63.7684 54.0093ZM69.8737 55.3507C69.8737 55.6706 69.8332 55.9616 69.7523 56.2238C69.6752 56.482 69.5557 56.7056 69.3938 56.8945C69.2357 57.0833 69.0314 57.2279 68.7809 57.3281C68.5342 57.4283 68.2432 57.4784 67.9078 57.4784C67.5725 57.4784 67.2795 57.4283 67.029 57.3281C66.7823 57.224 66.578 57.0795 66.4161 56.8945C66.258 56.7056 66.1385 56.4801 66.0576 56.218C65.9805 55.9559 65.942 55.6648 65.942 55.3449C65.942 54.917 66.0113 54.5451 66.1501 54.229C66.2927 53.9129 66.5086 53.6681 66.7977 53.4947C67.0906 53.3174 67.4626 53.2287 67.9136 53.2287C68.3607 53.2287 68.7289 53.3174 69.018 53.4947C69.3071 53.6681 69.521 53.9148 69.6598 54.2348C69.8024 54.5508 69.8737 54.9228 69.8737 55.3507ZM66.8613 55.3507C66.8613 55.6398 66.8979 55.8884 66.9711 56.0966C67.0444 56.3047 67.1581 56.4647 67.3123 56.5765C67.4665 56.6882 67.665 56.7441 67.9078 56.7441C68.1584 56.7441 68.3588 56.6882 68.5091 56.5765C68.6633 56.4647 68.7751 56.3047 68.8445 56.0966C68.9177 55.8884 68.9544 55.6398 68.9544 55.3507C68.9544 54.9151 68.8734 54.574 68.7115 54.3273C68.5496 54.0806 68.2836 53.9572 67.9136 53.9572C67.6669 53.9572 67.4665 54.0131 67.3123 54.1249C67.1581 54.2367 67.0444 54.3967 66.9711 54.6048C66.8979 54.813 66.8613 55.0616 66.8613 55.3507ZM73.0879 53.2345V53.7433C73.5389 53.7549 73.8973 53.8339 74.1633 53.9804C74.4331 54.123 74.6259 54.308 74.7415 54.5354C74.861 54.7628 74.9207 55.0115 74.9207 55.2813C74.9207 55.4548 74.8899 55.6321 74.8282 55.8132C74.7704 55.9944 74.6702 56.1621 74.5276 56.3163C74.3888 56.4666 74.2018 56.5899 73.9667 56.6863C73.7316 56.7827 73.4386 56.8347 73.0879 56.8424V57.4784H72.3015V56.8424C71.9469 56.8347 71.6501 56.7827 71.4111 56.6863C71.176 56.5899 70.989 56.4647 70.8502 56.3105C70.7115 56.1563 70.6132 55.9905 70.5554 55.8132C70.4975 55.6321 70.4686 55.4548 70.4686 55.2813C70.4686 55.0809 70.5014 54.8901 70.5669 54.7089C70.6325 54.5277 70.7365 54.3658 70.8792 54.2232C71.0218 54.0806 71.2107 53.9669 71.4458 53.8821C71.6809 53.7973 71.9662 53.751 72.3015 53.7433V53.2345H73.0879ZM72.3015 54.4256C72.051 54.4371 71.8505 54.4815 71.7002 54.5586C71.5537 54.6318 71.4477 54.7301 71.3822 54.8534C71.3205 54.9768 71.2897 55.1175 71.2897 55.2755C71.2897 55.449 71.3244 55.6012 71.3937 55.7323C71.467 55.8595 71.5768 55.9616 71.7233 56.0387C71.8737 56.112 72.0664 56.1544 72.3015 56.1659V54.4256ZM73.0879 56.1659C73.323 56.1544 73.5138 56.112 73.6603 56.0387C73.8106 55.9616 73.9205 55.8595 73.9898 55.7323C74.0631 55.6012 74.0997 55.449 74.0997 55.2755C74.0997 55.1175 74.0669 54.9768 74.0014 54.8534C73.9397 54.7301 73.8337 54.6318 73.6834 54.5586C73.5369 54.4815 73.3384 54.4371 73.0879 54.4256V56.1659ZM75.7033 53.2923H76.4897V55.2871C76.4897 55.3834 76.4877 55.4914 76.4839 55.6109C76.48 55.7304 76.4762 55.8479 76.4723 55.9636C76.4685 56.0753 76.4646 56.1736 76.4608 56.2584C76.4569 56.3394 76.4531 56.3953 76.4492 56.4261H76.4665L78.3746 53.2923H79.4211V57.4206H78.6406V55.4374C78.6406 55.3333 78.6425 55.2196 78.6463 55.0963C78.6502 54.9691 78.6541 54.8476 78.6579 54.732C78.6656 54.6164 78.6714 54.5162 78.6753 54.4313C78.683 54.3427 78.6887 54.2849 78.6926 54.2579H78.6695L76.7556 57.4206H75.7033V53.2923ZM83.7301 57.4206H82.857V54.0208H81.8452C81.822 54.1981 81.797 54.3909 81.77 54.599C81.7469 54.8072 81.7199 55.0192 81.689 55.235C81.6621 55.447 81.6332 55.6494 81.6023 55.8421C81.5715 56.031 81.5406 56.1987 81.5098 56.3452C81.4597 56.5842 81.3922 56.7885 81.3074 56.9581C81.2265 57.1277 81.1128 57.2568 80.9663 57.3455C80.8237 57.4341 80.6367 57.4784 80.4055 57.4784C80.3284 57.4784 80.2551 57.4727 80.1857 57.4611C80.1164 57.4495 80.0508 57.4341 79.9892 57.4148V56.6979C80.0393 56.7133 80.0874 56.7268 80.1337 56.7383C80.1838 56.7499 80.2378 56.7557 80.2956 56.7557C80.3727 56.7557 80.4363 56.7306 80.4864 56.6805C80.5365 56.6304 80.5808 56.5456 80.6194 56.4261C80.6579 56.3028 80.6965 56.1332 80.735 55.9173C80.7543 55.8248 80.7774 55.6937 80.8044 55.5241C80.8314 55.3507 80.8622 55.1483 80.8969 54.917C80.9355 54.6819 80.974 54.4275 81.0126 54.1538C81.0511 53.8763 81.0877 53.5891 81.1224 53.2923H83.7301V57.4206ZM84.7715 57.4206V53.2923H85.6446V54.8766H85.9915C86.3808 54.8766 86.6988 54.9305 86.9455 55.0385C87.1961 55.1464 87.3811 55.2948 87.5006 55.4837C87.6201 55.6725 87.6798 55.8884 87.6798 56.1312C87.6798 56.4011 87.6201 56.6323 87.5006 56.8251C87.3811 57.0178 87.1961 57.1662 86.9455 57.2703C86.695 57.3705 86.3712 57.4206 85.9741 57.4206H84.7715ZM85.9395 56.7037C86.2054 56.7037 86.4136 56.6613 86.5639 56.5765C86.7181 56.4917 86.7952 56.3432 86.7952 56.1312C86.7952 55.9848 86.7566 55.873 86.6795 55.7959C86.6063 55.7188 86.5003 55.6668 86.3615 55.6398C86.2266 55.6089 86.0628 55.5935 85.8701 55.5935H85.6446V56.7037H85.9395ZM61.5532 64.4206H60.5587L59.0612 62.3276V64.4206H58.1881V60.2923H59.0612V62.2929L60.5414 60.2923H61.4722L59.9689 62.2755L61.5532 64.4206ZM64.1081 63.2122C63.9925 63.4743 63.8691 63.7017 63.738 63.8945C63.6108 64.0833 63.447 64.2279 63.2466 64.3281C63.0461 64.4283 62.784 64.4784 62.4602 64.4784C62.36 64.4784 62.2502 64.4707 62.1307 64.4553C62.0112 64.4399 61.9013 64.4187 61.8011 64.3917V63.6401C61.8936 63.6786 61.9958 63.7056 62.1075 63.721C62.2193 63.7364 62.3234 63.7441 62.4198 63.7441C62.547 63.7441 62.6491 63.7229 62.7262 63.6805C62.8072 63.6381 62.8708 63.5803 62.917 63.5071C62.9671 63.43 63.0076 63.3471 63.0384 63.2584L61.6103 60.2923H62.5354L63.3044 62.0789C63.3237 62.1175 63.3468 62.1676 63.3738 62.2293C63.4008 62.2909 63.4277 62.3545 63.4547 62.4201C63.4817 62.4856 63.5029 62.5434 63.5183 62.5935H63.5472C63.5627 62.5473 63.5819 62.4914 63.6051 62.4258C63.632 62.3565 63.659 62.2871 63.686 62.2177C63.7168 62.1445 63.7438 62.0809 63.767 62.0269L64.4839 60.2923H65.3859L64.1081 63.2122ZM67.2251 60.2923C67.757 60.2923 68.1444 60.4079 68.3872 60.6392C68.6339 60.8666 68.7573 61.1808 68.7573 61.5817C68.7573 61.7628 68.7303 61.9363 68.6763 62.1021C68.6224 62.264 68.5318 62.4104 68.4046 62.5415C68.2812 62.6687 68.1174 62.7689 67.9131 62.8421C67.7088 62.9154 67.4563 62.952 67.1557 62.952H66.7798V64.4206H65.9068V60.2923H67.2251ZM67.1788 61.0093H66.7798V62.235H67.0689C67.2347 62.235 67.3773 62.2138 67.4968 62.1714C67.6163 62.129 67.7088 62.0616 67.7743 61.9691C67.8399 61.8766 67.8726 61.7571 67.8726 61.6106C67.8726 61.4063 67.8167 61.256 67.705 61.1596C67.5932 61.0594 67.4178 61.0093 67.1788 61.0093ZM72.9025 64.4206H71.908L70.4105 62.3276V64.4206H69.5374V60.2923H70.4105V62.2929L71.8907 60.2923H72.8216L71.3183 62.2755L72.9025 64.4206ZM73.4222 60.2923H74.2085V62.2871C74.2085 62.3834 74.2066 62.4914 74.2027 62.6109C74.1989 62.7304 74.195 62.8479 74.1912 62.9636C74.1873 63.0753 74.1835 63.1736 74.1796 63.2584C74.1758 63.3394 74.1719 63.3953 74.168 63.4261H74.1854L76.0934 60.2923H77.14V64.4206H76.3594V62.4374C76.3594 62.3333 76.3613 62.2196 76.3652 62.0963C76.369 61.9691 76.3729 61.8476 76.3767 61.732C76.3845 61.6164 76.3902 61.5162 76.3941 61.4313C76.4018 61.3427 76.4076 61.2849 76.4114 61.2579H76.3883L74.4745 64.4206H73.4222V60.2923ZM81.5646 64.4206H80.6915V62.6398H79.0552V64.4206H78.1821V60.2923H79.0552V61.9113H80.6915V60.2923H81.5646V64.4206ZM86.35 62.3507C86.35 62.6706 86.3095 62.9616 86.2286 63.2238C86.1515 63.482 86.032 63.7056 85.8701 63.8945C85.712 64.0833 85.5077 64.2279 85.2572 64.3281C85.0105 64.4283 84.7195 64.4784 84.3841 64.4784C84.0488 64.4784 83.7558 64.4283 83.5053 64.3281C83.2586 64.224 83.0543 64.0795 82.8924 63.8945C82.7343 63.7056 82.6148 63.4801 82.5339 63.218C82.4568 62.9559 82.4182 62.6648 82.4182 62.3449C82.4182 61.917 82.4876 61.5451 82.6264 61.229C82.769 60.9129 82.9849 60.6681 83.274 60.4947C83.5669 60.3174 83.9389 60.2287 84.3899 60.2287C84.837 60.2287 85.2051 60.3174 85.4942 60.4947C85.7833 60.6681 85.9973 60.9148 86.136 61.2348C86.2787 61.5508 86.35 61.9228 86.35 62.3507ZM83.3376 62.3507C83.3376 62.6398 83.3742 62.8884 83.4474 63.0966C83.5207 63.3047 83.6344 63.4647 83.7886 63.5765C83.9428 63.6882 84.1413 63.7441 84.3841 63.7441C84.6347 63.7441 84.8351 63.6882 84.9854 63.5765C85.1396 63.4647 85.2514 63.3047 85.3208 63.0966C85.394 62.8884 85.4306 62.6398 85.4306 62.3507C85.4306 61.9151 85.3497 61.574 85.1878 61.3273C85.0259 61.0806 84.7599 60.9572 84.3899 60.9572C84.1432 60.9572 83.9428 61.0131 83.7886 61.1249C83.6344 61.2367 83.5207 61.3967 83.4474 61.6048C83.3742 61.813 83.3376 62.0616 83.3376 62.3507Z" fill="#013D57"/>
<path d="M20.5669 55.3116C22.9519 55.3116 25.337 55.3116 27.7943 55.3116C27.7943 60.2407 27.7943 65.1698 27.7943 70.2483C23.4579 69.7665 23.4579 69.7665 20.5669 68.8028C20.5669 64.3507 20.5669 59.8986 20.5669 55.3116Z" fill="#FEFEFC"/>
</svg>
