<svg width="14" height="14" viewBox="0 0 14 14" fill="none" xmlns="http://www.w3.org/2000/svg">
<g clip-path="url(#clip0_476_12)">
<path d="M6.99993 13.3566C5.74271 13.3566 4.51372 12.9838 3.46838 12.2853C2.42304 11.5869 1.6083 10.5941 1.12718 9.43258C0.646065 8.27106 0.520183 6.99296 0.765454 5.75989C1.01073 4.52683 1.61613 3.39419 2.50512 2.5052C3.39411 1.61621 4.52675 1.0108 5.75982 0.76553C6.99288 0.520259 8.27098 0.646141 9.4325 1.12726C10.594 1.60838 11.5868 2.42312 12.2853 3.46846C12.9837 4.5138 13.3565 5.74279 13.3565 7.00001C13.3565 8.68589 12.6868 10.3027 11.4947 11.4948C10.3026 12.6869 8.68581 13.3566 6.99993 13.3566ZM6.99993 1.62133C5.93613 1.62133 4.89622 1.93678 4.0117 2.5278C3.12718 3.11882 2.43778 3.95885 2.03068 4.94168C1.62358 5.9245 1.51707 7.00597 1.7246 8.04934C1.93214 9.0927 2.44441 10.0511 3.19663 10.8033C3.94885 11.5555 4.90724 12.0678 5.9506 12.2753C6.99396 12.4829 8.07544 12.3764 9.05826 11.9693C10.0411 11.5622 10.8811 10.8728 11.4721 9.98824C12.0632 9.10372 12.3786 8.06381 12.3786 7.00001C12.3786 5.57349 11.8119 4.20541 10.8032 3.19671C9.79453 2.18801 8.42644 1.62133 6.99993 1.62133Z" fill="black"/>
<path d="M9.6893 10.1783C9.62495 10.1787 9.56116 10.1664 9.50158 10.142C9.44201 10.1177 9.38782 10.0818 9.34213 10.0365L6.6528 7.34718C6.60748 7.30149 6.57162 7.2473 6.54729 7.18773C6.52296 7.12815 6.51062 7.06436 6.51099 7.00001V3.08824C6.51099 2.95856 6.56251 2.83419 6.65421 2.74249C6.74591 2.65079 6.87028 2.59927 6.99997 2.59927C7.12965 2.59927 7.25402 2.65079 7.34572 2.74249C7.43742 2.83419 7.48894 2.95856 7.48894 3.08824V6.79953L10.0365 9.34218C10.0823 9.38763 10.1187 9.44172 10.1435 9.5013C10.1683 9.56089 10.1811 9.6248 10.1811 9.68935C10.1811 9.7539 10.1683 9.81781 10.1435 9.87739C10.1187 9.93698 10.0823 9.99106 10.0365 10.0365C9.99078 10.0818 9.9366 10.1177 9.87702 10.142C9.81745 10.1664 9.75366 10.1787 9.6893 10.1783Z" fill="black"/>
</g>
<defs>
<clipPath id="clip0_476_12">
<rect width="14" height="14" fill="white"/>
</clipPath>
</defs>
</svg>
