<svg width="15" height="14" viewBox="0 0 15 14" fill="none" xmlns="http://www.w3.org/2000/svg">
<path d="M7.49992 0.583328C6.23082 0.583328 4.99023 0.959659 3.93501 1.66473C2.8798 2.3698 2.05736 3.37195 1.57169 4.54444C1.08603 5.71694 0.958961 7.00711 1.20655 8.25182C1.45414 9.49654 2.06527 10.6399 2.96265 11.5373C3.86004 12.4347 5.00338 13.0458 6.24809 13.2934C7.4928 13.541 8.78298 13.4139 9.95547 12.9282C11.128 12.4426 12.1301 11.6201 12.8352 10.5649C13.5403 9.50969 13.9166 8.26909 13.9166 7C13.9146 5.29881 13.2379 3.66787 12.035 2.46494C10.8321 1.26202 9.20111 0.585335 7.49992 0.583328ZM7.49992 12.25C6.46157 12.25 5.44654 11.9421 4.58318 11.3652C3.71982 10.7883 3.04691 9.9684 2.64955 9.00908C2.25219 8.04977 2.14823 6.99417 2.3508 5.97577C2.55337 4.95737 3.05339 4.02191 3.78761 3.28768C4.52184 2.55346 5.4573 2.05344 6.4757 1.85087C7.4941 1.6483 8.5497 1.75227 9.50901 2.14963C10.4683 2.54699 11.2883 3.21989 11.8651 4.08325C12.442 4.94661 12.7499 5.96164 12.7499 7C12.7482 8.39186 12.1946 9.72623 11.2104 10.7104C10.2262 11.6946 8.89179 12.2483 7.49992 12.25ZM10.8465 5.14733C10.8983 5.20378 10.9385 5.26989 10.9647 5.34186C10.9909 5.41384 11.0027 5.49028 10.9994 5.56682C10.9961 5.64336 10.9778 5.7185 10.9454 5.78795C10.9131 5.8574 10.8674 5.9198 10.8109 5.97158L7.31092 9.17991C7.20011 9.28152 7.05434 9.33642 6.90403 9.33316C6.75372 9.3299 6.61047 9.26873 6.50417 9.16241L4.75417 7.41241C4.64479 7.30295 4.58337 7.15453 4.58343 6.99979C4.58348 6.84505 4.64501 6.69667 4.75446 6.58729C4.86392 6.47791 5.01235 6.41649 5.16709 6.41654C5.32183 6.4166 5.47021 6.47812 5.57959 6.58758L6.93467 7.94266L10.0228 5.11174C10.1368 5.00733 10.2876 4.95243 10.442 4.9591C10.5965 4.96577 10.7419 5.03347 10.8465 5.14733Z" fill="black"/>
</svg>
