<?xml version="1.0" encoding="UTF-8"?>
<!DOCTYPE svg PUBLIC "-//W3C//DTD SVG 1.1//EN" "http://www.w3.org/Graphics/SVG/1.1/DTD/svg11.dtd">
<!-- Creator: CorelDRAW -->
<svg xmlns="http://www.w3.org/2000/svg" xml:space="preserve" width="6.82666in" height="6.82666in"
     style="shape-rendering:geometricPrecision; text-rendering:geometricPrecision; image-rendering:optimizeQuality; fill-rule:evenodd; clip-rule:evenodd"
     viewBox="0 0 6.82666 6.82666"
>
 <defs>
  <style type="text/css">
   <![CDATA[
    .fil1 {fill:none}
    .fil0 {fill:#212121;fill-rule:nonzero}
   ]]>
  </style>
 </defs>
 <g id="Layer_x0020_1">
  <metadata id="CorelCorpID_0Corel-Layer"/>
  <g id="_558153536">
   <path id="_558154568" class="fil0" d="M1.03009 1.17576l0.548594 0 0.106669 0 0 0.106669 0 0.117638 0.459571 0 0 -0.117638 0 -0.106669 0.106669 0 2.32348 0 0.106669 0 0 0.106669 0 0.117638 0.459571 0 0 -0.117638 0 -0.106669 0.106669 0 0.548591 0c0.0487165,0 0.092937,0.0198583 0.124921,0.0518425 0.0319843,0.0319843 0.0518425,0.0762126 0.0518425,0.124921l0 4.34592c0,0.0487205 -0.0198661,0.0929331 -0.0518465,0.124913l-0.000208661 -0.000208661c-0.0322165,0.032122 -0.076374,0.0520551 -0.124709,0.0520551l-4.76648 0c-0.0487087,0 -0.092937,-0.0198583 -0.124921,-0.0518425 -0.0319843,-0.0319843 -0.0518425,-0.0762008 -0.0518425,-0.124917l0 -4.34592c0,-0.0482402 0.0198504,-0.0923071 0.0518465,-0.1245l-3.93701e-006 -3.93701e-006 0.000208661 -0.000208661 0.000208661 -0.000208661 3.93701e-006 3.93701e-006c0.0321929,-0.0319961 0.0762598,-0.0518465 0.1245,-0.0518465zm0.441925 0.213339l-0.40535 0 0 4.27276 4.69333 0 0 -4.27276 -0.405346 0 0 0.0650709c0,0.0438976 -0.0178858,0.0837362 -0.0466929,0.112543 -0.0288071,0.0288071 -0.0686457,0.0466929 -0.112543,0.0466929l-0.567776 0c-0.0438976,0 -0.0837362,-0.0178858 -0.112543,-0.0466929 -0.0288071,-0.0288071 -0.0466929,-0.0686457 -0.0466929,-0.112543l0 -0.0650709 -2.11014 0 0 0.0650709c0,0.0438976 -0.0178858,0.0837362 -0.0466929,0.112543l-0.000208661 -0.000208661c-0.0290354,0.0289449 -0.068811,0.0469016 -0.112335,0.0469016l-0.567776 0c-0.0438976,0 -0.0837362,-0.0178858 -0.112543,-0.0466929 -0.0288071,-0.0288071 -0.0466929,-0.0686457 -0.0466929,-0.112543l0 -0.0650709z"/>
   <path id="_558154688" class="fil0" d="M1.63126 0.951461l0.567772 0c0.0438976,0 0.0837362,0.0178858 0.112543,0.0466929 0.0288071,0.0288071 0.0466929,0.0686417 0.0466929,0.112547l0 0.343465c0,0.0436181 -0.0178858,0.083315 -0.0466929,0.112134l0 0.000417323c-0.0288071,0.0288071 -0.0686457,0.0466929 -0.112543,0.0466929l-0.567772 0c-0.0439055,0 -0.0837402,-0.0178858 -0.112547,-0.0466929l0 -0.000417323c-0.0288071,-0.0288189 -0.0466929,-0.0685157 -0.0466929,-0.112134l0 -0.343465c0,-0.0439055 0.0178858,-0.0837402 0.0466929,-0.112547 0.0288071,-0.0288071 0.0686417,-0.0466929 0.112547,-0.0466929zm0.513669 0.213339l-0.459571 0 0 0.235272 0.459571 0 0 -0.235272z"/>
   <path id="_558154592" class="fil0" d="M4.62764 0.951461l0.567768 0c0.0439055,0 0.0837402,0.0178858 0.112547,0.0466929 0.0288071,0.0288071 0.0466929,0.0686417 0.0466929,0.112547l0 0.343465c0,0.0436181 -0.0178858,0.083315 -0.0466929,0.112134l0 0.000417323c-0.0288071,0.0288071 -0.0686417,0.0466929 -0.112547,0.0466929l-0.567768 0c-0.0439055,0 -0.0837402,-0.0178858 -0.112547,-0.0466929l0 -0.000417323c-0.0288071,-0.0288189 -0.0466929,-0.0685157 -0.0466929,-0.112134l0 -0.343465c0,-0.0439055 0.0178858,-0.0837402 0.0466929,-0.112547 0.0288071,-0.0288071 0.0686417,-0.0466929 0.112547,-0.0466929zm0.513669 0.213339l-0.459571 0 0 0.235272 0.459571 0 0 -0.235272z"/>
   <polygon id="_558154232" class="fil0" points="0.959996,1.96082 5.86667,1.96082 5.86667,2.17416 0.959996,2.17416 "/>
   <path id="_558153776" class="fil0" d="M1.55337 2.56792l0.672917 0 0.106669 0 0 0.106669 0 0.672913 0 0.106669 -0.106669 0 -0.672917 0 -0.106669 0 0 -0.106669 0 -0.672913 0 -0.106669 0.106669 0zm0.566248 0.213339l-0.459579 0 0 0.459575 0.459579 0 0 -0.459575z"/>
   <path id="_558154088" class="fil0" d="M1.55337 3.91374l0.672917 0 0.106669 0 0 0.106669 0 0.672913 0 0.106669 -0.106669 0 -0.672917 0 -0.106669 0 0 -0.106669 0 -0.672913 0 -0.106669 0.106669 0zm0.566248 0.213339l-0.459579 0 0 0.459575 0.459579 0 0 -0.459575z"/>
   <path id="_558153872" class="fil0" d="M3.62819 2.55285c0.261717,0 0.498677,0.106098 0.670197,0.277618 0.17152,0.17152 0.277618,0.408476 0.277618,0.670193 0,0.261717 -0.106094,0.498669 -0.277618,0.670197 -0.17152,0.17152 -0.40848,0.277618 -0.670197,0.277618 -0.261713,0 -0.498673,-0.106098 -0.670193,-0.277618 -0.171524,-0.171528 -0.277618,-0.40848 -0.277618,-0.670197 0,-0.261717 0.106098,-0.498673 0.277618,-0.670193 0.17152,-0.17152 0.408476,-0.277618 0.670193,-0.277618zm0.519362 0.428453c-0.132902,-0.132902 -0.316531,-0.215114 -0.519362,-0.215114 -0.202831,0 -0.386457,0.0822126 -0.519358,0.215114 -0.132902,0.132902 -0.215114,0.316528 -0.215114,0.519358 0,0.202831 0.0822087,0.386453 0.215114,0.519362 0.132902,0.132902 0.316531,0.215114 0.519358,0.215114 0.202831,0 0.386461,-0.0822126 0.519362,-0.215114 0.132906,-0.132909 0.215114,-0.316531 0.215114,-0.519362 0,-0.202831 -0.0822126,-0.386457 -0.215114,-0.519358z"/>
   <polygon id="_558153320" class="fil0" points="4.28326,4.0858 5.34871,5.15124 5.19787,5.30208 4.13243,4.23663 "/>
  </g>
 </g>
 <rect class="fil1" width="6.82666" height="6.82666"/>
</svg>
