<svg width="22" height="23" viewBox="0 0 22 23" fill="none" xmlns="http://www.w3.org/2000/svg">
<path d="M9.33991 0.619995C4.2753 0.619995 0.159912 4.73539 0.159912 9.8C0.159912 14.8646 4.2753 18.98 9.33991 18.98C11.3438 18.98 13.1959 18.3345 14.7062 17.2419L19.5811 22.1052C19.9717 22.4949 20.6042 22.4946 20.9944 22.1044L21.1011 21.9977C21.4911 21.6077 21.4917 20.9755 21.1024 20.5848L16.3093 15.7737C17.6888 14.1664 18.5199 12.0802 18.5199 9.8C18.5199 4.73539 14.4045 0.619995 9.33991 0.619995ZM9.33991 1.7C13.8202 1.7 17.4399 5.31968 17.4399 9.8C17.4399 14.2803 13.8202 17.9 9.33991 17.9C4.8596 17.9 1.23991 14.2803 1.23991 9.8C1.23991 5.31968 4.8596 1.7 9.33991 1.7Z" fill="#A5A5A5"/>
</svg>
