<?xml version="1.0" encoding="utf-8"?>
<!-- Generator: Adobe Illustrator 24.3.0, SVG Export Plug-In . SVG Version: 6.00 Build 0)  -->
<svg version="1.1" id="Layer_1" xmlns="http://www.w3.org/2000/svg" xmlns:xlink="http://www.w3.org/1999/xlink" x="0px" y="0px"
	 viewBox="0 0 32 32" enable-background="new 0 0 32 32" xml:space="preserve">
<g>
	<g>
		<path d="M16.07,1.946c2.956,0,5.352,3.019,5.352,6.743c0,2.612-1.179,4.876-2.903,5.996c-0.412,0.268-0.671,0.716-0.671,1.208
			v1.045c0,0.813,0.659,1.471,1.471,1.471h0.692c4.361,0,7.897,3.535,7.897,7.897v3.75H4.092V26.34c0-4.362,3.569-7.932,7.932-7.932
			h0.76c0.813,0,1.471-0.659,1.471-1.471v-1.065c0-0.49-0.256-0.937-0.664-1.207c-1.707-1.127-2.872-3.38-2.872-5.976
			C10.718,4.964,13.114,1.946,16.07,1.946 M16.07,0.946c-3.502,0-6.352,3.473-6.352,7.743c0,2.849,1.273,5.459,3.322,6.811
			c0.135,0.089,0.215,0.228,0.215,0.372v1.065c0,0.26-0.211,0.471-0.471,0.471h-0.76c-4.925,0-8.932,4.007-8.932,8.932v3.715
			c0,0.552,0.448,1,1,1h23.815c0.552,0,1-0.448,1-1v-3.75c0-4.906-3.991-8.897-8.897-8.897h-0.692c-0.26,0-0.471-0.211-0.471-0.471
			v-1.045c0-0.143,0.081-0.281,0.215-0.369c2.072-1.345,3.359-3.964,3.359-6.834C22.422,4.419,19.572,0.946,16.07,0.946L16.07,0.946
			z"/>
	</g>
	<g>
		<g>
			<path d="M8.5,30.5C8.224,30.5,8,30.276,8,30v-4c0-0.276,0.224-0.5,0.5-0.5S9,25.724,9,26v4C9,30.276,8.776,30.5,8.5,30.5z"/>
		</g>
		<g>
			<path d="M23.5,30.5c-0.276,0-0.5-0.224-0.5-0.5v-4c0-0.276,0.224-0.5,0.5-0.5S24,25.724,24,26v4C24,30.276,23.776,30.5,23.5,30.5
				z"/>
		</g>
	</g>
	<g>
		<path d="M13.946,7.468c-1.215,0-2.408-0.32-3.449-0.924c-0.239-0.139-0.32-0.445-0.182-0.684c0.139-0.239,0.443-0.319,0.684-0.182
			c0.889,0.517,1.908,0.79,2.947,0.79c2.339,0,4.438-1.369,5.348-3.487c0.109-0.254,0.403-0.37,0.657-0.262
			c0.254,0.109,0.371,0.403,0.262,0.657C19.145,5.862,16.686,7.468,13.946,7.468z"/>
	</g>
	<g>
		<path d="M15.938,21.742c-2.24,0-4.252-1.333-5.125-3.397c-0.107-0.254,0.011-0.548,0.266-0.655
			c0.254-0.107,0.548,0.011,0.655,0.266c0.716,1.693,2.366,2.787,4.204,2.787c1.886,0,3.552-1.133,4.245-2.886
			c0.101-0.258,0.395-0.382,0.648-0.281c0.257,0.101,0.383,0.392,0.281,0.648C20.268,20.36,18.237,21.742,15.938,21.742z"/>
	</g>
</g>
</svg>
