<svg width="26" height="26" viewBox="0 0 26 26" fill="none" xmlns="http://www.w3.org/2000/svg">
<path d="M19.749 2.74166H6.2305C5.84815 2.74166 5.53784 2.43204 5.53784 2.04901C5.53784 1.66597 5.84815 1.35635 6.2305 1.35635H19.749C20.1314 1.35635 20.4417 1.66597 20.4417 2.04901C20.4417 2.43204 20.1314 2.74166 19.749 2.74166Z" fill="black"/>
<path d="M12.8549 20.5796C10.8884 20.5796 8.56805 19.799 7.27071 18.0951C6.25943 16.7665 5.88955 15.0695 5.62288 13.5831C5.48366 12.806 5.395 11.9782 5.35275 11.0535C5.20106 7.76759 5.35275 4.76148 5.53976 2.00264C5.56608 1.62099 5.89094 1.34808 6.27744 1.35778C6.65909 1.38341 6.94793 1.7145 6.92161 2.09545C6.73805 4.81412 6.58844 7.77244 6.73667 10.9898C6.77615 11.8536 6.85788 12.621 6.98672 13.3386C7.22499 14.6657 7.54846 16.1729 8.37272 17.2563C9.41377 18.6242 11.6836 19.434 13.6452 19.1382C15.6026 18.8452 17.1119 17.8007 18.011 16.1189C18.2631 15.6472 18.4654 15.1513 18.5963 14.683C18.8013 13.9495 18.9315 13.2354 18.9731 12.6176C19.0119 12.0413 19.0209 11.4622 19.0216 10.7696C19.023 9.59412 19.032 8.41799 19.0396 7.24256C19.052 5.5137 19.0645 3.78484 19.0548 2.0532C19.0527 1.67086 19.361 1.35916 19.744 1.35709C19.7454 1.35709 19.7475 1.35709 19.7475 1.35709C20.1284 1.35709 20.438 1.66462 20.4401 2.04628C20.4491 3.78276 20.4374 5.51786 20.4249 7.25295C20.4166 8.42561 20.4083 9.59897 20.4069 10.7716C20.4062 11.492 20.3965 12.0974 20.3549 12.7111C20.3064 13.4321 20.1638 14.2217 19.9296 15.0571C19.7724 15.6202 19.5314 16.2138 19.2321 16.7735C18.1343 18.8279 16.2226 20.1543 13.8495 20.5103C13.5344 20.5554 13.1998 20.5796 12.8549 20.5796Z" fill="black"/>
<path d="M12.6393 12.7103C12.3103 12.7103 11.9875 12.6009 11.6786 12.3848C11.0303 11.9318 10.569 11.4732 10.2275 10.9413C9.72738 10.1648 9.76063 9.27892 10.3196 8.44704L10.4193 8.29674C10.7352 7.82019 11.1272 7.2252 11.806 6.93429C12.0173 6.84355 12.2389 6.79784 12.4647 6.79784C13.2523 6.79784 13.8875 7.34503 14.3529 7.82227L14.4132 7.88323C14.8336 8.31198 15.358 8.84601 15.448 9.63564C15.5568 10.5867 14.5143 11.6076 14.1922 11.8985C13.7974 12.2649 13.3146 12.7103 12.6393 12.7103ZM12.4654 8.18384C12.4273 8.18384 12.392 8.19146 12.3525 8.20808C12.0547 8.33622 11.8109 8.70471 11.5747 9.06143L11.4687 9.22074C11.1536 9.68897 11.2457 9.96326 11.3925 10.1911C11.6336 10.5659 11.9771 10.9018 12.4731 11.2488C12.5416 11.2966 12.6019 11.3236 12.6393 11.3236C12.7723 11.3236 13.0459 11.0715 13.2454 10.8873C13.6693 10.5001 14.062 9.97088 14.0717 9.77832C14.0364 9.47494 13.7399 9.17225 13.4255 8.85225L13.3631 8.78852C13.2163 8.64029 12.7702 8.18384 12.4654 8.18384Z" fill="black"/>
<path d="M18.961 16.6536C18.6902 16.6536 18.4332 16.4943 18.3224 16.229C18.1741 15.8765 18.3397 15.4706 18.6929 15.3223C18.8633 15.2503 19.0358 15.1845 19.2083 15.118C19.4542 15.0238 19.7001 14.9303 19.9376 14.8167C20.8097 14.4011 21.503 13.644 22.0565 12.5026C22.6563 11.2655 23.0677 9.60103 23.2811 7.55424C23.3822 6.58244 23.225 5.73048 22.8717 5.3322C22.6909 5.12787 22.4534 5.0309 22.125 5.02605C21.3777 5.01428 20.6296 5.0122 19.8822 5.0122C19.4999 5.0122 19.1896 4.70258 19.1896 4.31955C19.1896 3.93651 19.4999 3.62689 19.8822 3.62689C20.6365 3.62689 21.3922 3.62897 22.1465 3.64075C22.8606 3.65252 23.4702 3.9185 23.9079 4.41305C24.7592 5.37169 24.744 6.88236 24.6588 7.69762C24.4295 9.90441 23.9737 11.724 23.3032 13.1072C22.6168 14.5223 21.6852 15.5184 20.5333 16.0669C20.2632 16.1958 19.9847 16.3038 19.7056 16.4105C19.5463 16.4722 19.387 16.5331 19.2298 16.5982C19.1418 16.6363 19.0504 16.6536 18.961 16.6536Z" fill="black"/>
<path d="M6.37018 16.6536C6.28082 16.6536 6.19009 16.637 6.10212 16.5996C5.94489 16.5338 5.78558 16.4728 5.62627 16.4119C5.34713 16.3052 5.06868 16.1965 4.79924 16.069C3.64666 15.5197 2.71504 14.5237 2.02862 13.1086C1.35813 11.7254 0.902368 9.90578 0.6731 7.69899C0.587904 6.88374 0.572666 5.37306 1.42394 4.41443C1.86239 3.91987 2.47123 3.6532 3.18535 3.64212C3.94035 3.63034 4.69534 3.62827 5.45033 3.62827C5.83268 3.62827 6.14299 3.93788 6.14299 4.32092C6.14299 4.70396 5.83268 5.01357 5.45033 5.01357C4.70227 5.01357 3.95489 5.01565 3.20683 5.02743C2.87851 5.03297 2.64162 5.12925 2.46015 5.33358C2.10689 5.73185 1.94966 6.58382 2.05079 7.55561C2.26343 9.60171 2.67556 11.2662 3.2754 12.5039C3.82883 13.6447 4.52148 14.4025 5.39492 14.8188C5.63181 14.931 5.8777 15.0252 6.12359 15.1194C6.29606 15.1859 6.46853 15.2517 6.63893 15.3237C6.99149 15.4719 7.15772 15.8778 7.00949 16.2304C6.89728 16.4936 6.64031 16.6536 6.37018 16.6536Z" fill="black"/>
<path d="M14.0854 24.8304C12.982 24.8304 11.6037 24.829 10.627 24.8283L9.49246 24.8276C9.11011 24.8276 8.7998 24.518 8.7998 24.1349C8.7998 23.7519 9.11011 23.4423 9.49246 23.4423L10.6284 23.443C12.3649 23.4444 15.371 23.4471 15.8323 23.4423C16.2271 23.4686 16.5284 23.7457 16.5319 24.128C16.5354 24.5104 16.2285 24.8234 15.8462 24.8276C15.6432 24.8297 14.9485 24.8304 14.0854 24.8304Z" fill="black"/>
<path d="M12.6728 24.7313C12.2953 24.7313 11.9863 24.4279 11.9801 24.0491C11.9669 23.1542 11.9607 21.4433 11.9718 20.3226C11.9759 19.943 12.2849 19.6376 12.6644 19.6376C12.6665 19.6376 12.6693 19.6376 12.6714 19.6376C13.0537 19.6417 13.3612 19.9548 13.3571 20.3378C13.3453 21.4482 13.3522 23.1424 13.3654 24.029C13.3709 24.4113 13.0655 24.7265 12.6831 24.732C12.6797 24.7313 12.6762 24.7313 12.6728 24.7313Z" fill="black"/>
</svg>
