<?xml version="1.0" encoding="iso-8859-1"?>
<!-- Uploaded to: SVG Repo, www.svgrepo.com, Generator: SVG Repo Mixer Tools -->
<!DOCTYPE svg PUBLIC "-//W3C//DTD SVG 1.1//EN" "http://www.w3.org/Graphics/SVG/1.1/DTD/svg11.dtd">
<svg fill="#000000" height="800px" width="800px" version="1.1" id="Capa_1" xmlns="http://www.w3.org/2000/svg" xmlns:xlink="http://www.w3.org/1999/xlink" 
	 viewBox="0 0 460.067 460.067" xml:space="preserve">
<g>
	<path d="M454.165,154.398c-0.111-22.012-18.11-39.92-40.122-39.92c-7.096,0-67.007,0-73.949,0
		c1.413,5.186,2.191,10.629,2.22,16.245l0.674,134.227c0.073,14.404-7.867,27.011-19.623,33.599v141.027
		c0,11.236,9.109,20.345,20.345,20.345c11.236,0,20.345-9.108,20.345-20.345V281.348c0-2.426,1.967-4.392,4.393-4.392
		c2.426,0,4.393,1.967,4.393,4.393v158.229c0,11.236,9.108,20.345,20.345,20.345c11.236,0,20.345-9.108,20.345-20.345
		c0-269.024-0.36-115.048-0.369-284.913c0-1.941,1.56-3.523,3.501-3.549c1.941-0.026,3.542,1.513,3.595,3.454l0,0l0.626,124.557
		c0.047,9.335,7.628,16.869,16.952,16.869c0.028,0,0.059,0,0.087,0c9.363-0.047,16.916-7.676,16.869-17.039L454.165,154.398z"/>
	<path d="M368.676,103.277c19.39,0,35.138-15.746,35.138-35.138c0-19.407-15.732-35.139-35.138-35.139
		c-19.406,0-35.138,15.732-35.138,35.139C333.538,87.538,349.294,103.277,368.676,103.277z"/>
	<path d="M117.079,264.95l0.674-134.227c0.028-5.617,0.806-11.06,2.219-16.245c-6.939,0-66.854,0-73.95,0
		c-22.013,0-40.011,17.908-40.121,39.921L5.276,278.955c-0.047,9.363,7.505,16.992,16.869,17.039c0.029,0,0.058,0,0.087,0
		c9.323,0,16.905-7.534,16.952-16.869l0.626-124.557c0.016-3.163,2.445-6.183,6.547-6.183l0.008,291.19
		c0,11.236,9.109,20.345,20.345,20.345c11.236,0,20.345-9.108,20.345-20.345V281.348c0-2.426,1.967-4.392,4.393-4.392
		c2.426,0,4.393,1.967,4.393,4.393v158.229c0,11.236,9.108,20.345,20.345,20.345c11.236,0,20.345-9.108,20.345-20.345V298.449
		C124.869,291.833,117.007,279.283,117.079,264.95z"/>
	<path d="M56.538,68.139c0,10.49,4.602,19.9,11.892,26.339h0c6.195,5.472,14.33,8.799,23.246,8.799
		c19.405,0,35.138-15.731,35.138-35.138C126.815,48.732,111.083,33,91.676,33C72.265,33,56.538,48.738,56.538,68.139z"/>
	<path d="M207.013,67.803L207.013,67.803c6.406,4.966,14.442,7.93,23.174,7.93c20.839,0,37.866-16.906,37.866-37.866
		C268.054,16.877,250.991,0,230.187,0l0,0l0,0c-20.907,0-37.866,16.948-37.866,37.867C192.321,49.509,197.614,60.519,207.013,67.803
		z"/>
	<path d="M279.077,87.803c-10.17,0-87.895,0-98.087,0c-17.792,0-33.149,10.856-39.767,26.291c-2.266,5.285-3.441,10.95-3.47,16.729
		l-0.674,134.227v0.001c-0.051,10.091,8.088,18.311,18.179,18.362c0.031,0,0.063,0,0.094,0c10.047,0,18.218-8.12,18.269-18.179
		l0.674-134.228c0-0.005,0-0.011,0-0.016c0.015-1.943,1.598-3.508,3.541-3.501c1.943,0.007,3.514,1.585,3.514,3.528l0.008,307.125
		v0.001c0,12.108,9.816,21.925,21.925,21.925s21.925-9.816,21.925-21.925v-0.001V267.629c0-2.614,2.119-4.733,4.733-4.733
		c2.614,0,4.733,2.119,4.733,4.733v170.513v0.001c0,12.108,9.816,21.925,21.925,21.925c12.109,0,21.925-9.816,21.925-21.925v-0.001
		c0-78.408-0.376-225.029-0.397-307.113c0-2.105,1.701-3.815,3.807-3.824c2.105-0.009,3.822,1.685,3.84,3.791
		c0,0.004,0,0.007,0,0.011l0.674,134.228c0.051,10.06,8.22,18.179,18.268,18.179c0.031,0,0.063,0,0.094,0
		c10.09-0.051,18.23-8.271,18.179-18.362v-0.001l-0.674-134.227C322.194,107.083,302.779,87.803,279.077,87.803z"/>
</g>
</svg>