<svg width="17" height="18" viewBox="0 0 17 18" fill="none" xmlns="http://www.w3.org/2000/svg">
<g clip-path="url(#clip0_476_62)">
<path fill-rule="evenodd" clip-rule="evenodd" d="M7.53397 7.86217C7.42622 7.96992 7.42622 8.14408 7.53397 8.25182L9.18737 9.90522C9.2411 9.95896 9.31165 9.98596 9.38219 9.98596C9.45274 9.98596 9.52328 9.95896 9.57702 9.90522C9.68477 9.79748 9.68477 9.62332 9.57702 9.51557L7.92362 7.86217C7.81587 7.75443 7.64171 7.75443 7.53397 7.86217ZM6.82135 8.96444C6.71361 8.85669 6.53945 8.85669 6.4317 8.96444C6.32395 9.07219 6.32395 9.24634 6.4317 9.35409L8.0851 11.0075C8.13884 11.0612 8.20938 11.0882 8.27993 11.0882C8.35047 11.0882 8.42102 11.0612 8.47475 11.0075C8.5825 10.8997 8.5825 10.7256 8.47475 10.6178L6.82135 8.96444ZM5.71909 10.0667C5.61134 9.95896 5.43718 9.95896 5.32943 10.0667C5.22169 10.1745 5.22169 10.3486 5.32943 10.4564L6.98283 12.1098C7.03657 12.1635 7.10712 12.1905 7.17766 12.1905C7.24821 12.1905 7.31875 12.1635 7.37249 12.1098C7.48023 12.002 7.48023 11.8279 7.37249 11.7201L5.71909 10.0667ZM10.9215 9.43483L8.00436 6.51768L3.98495 10.5371L6.90209 13.4542L10.9215 9.43483ZM8.19919 5.93321L11.506 9.24001C11.6137 9.34775 11.6137 9.52191 11.506 9.62966L7.09692 14.0387C7.04318 14.0925 6.97264 14.1195 6.90209 14.1195C6.83155 14.1195 6.761 14.0925 6.70727 14.0387L3.40047 10.7319C3.29272 10.6242 3.29272 10.45 3.40047 10.3423L7.80953 5.93321C7.91728 5.82546 8.09144 5.82546 8.19919 5.93321ZM14.6111 10.6955C14.4793 10.6181 14.3107 10.6625 14.2338 10.7939L11.0753 16.1813C10.8471 16.5761 10.3403 16.712 9.95785 16.4915L9.34251 16.0928C9.2152 16.0099 9.04435 16.0465 8.96168 16.1741C8.87873 16.302 8.91511 16.4725 9.04297 16.5552L9.67016 16.9617C9.88648 17.0865 10.1232 17.1457 10.3569 17.1457C10.8333 17.1457 11.2971 16.8991 11.5515 16.4585L14.7092 11.0725C14.7861 10.9414 14.7422 10.7727 14.6111 10.6955ZM16.8225 1.99453V6.4036C16.8225 7.2562 16.5513 7.89138 15.9151 8.52739L7.73127 16.7227C7.47086 16.9832 7.12475 17.1262 6.75659 17.1262C6.38844 17.1262 6.0426 16.9832 5.78274 16.7227L0.716449 11.6567C0.456039 11.3963 0.312744 11.0502 0.312744 10.682C0.312744 10.3139 0.456039 9.96805 0.716449 9.70792L7.87402 2.56C6.00237 2.13452 4.84086 2.10586 4.50081 2.20534C4.64438 2.35222 5.09162 2.66416 6.17102 3.08963C6.31266 3.14557 6.3821 3.3054 6.32643 3.44704C6.27049 3.58869 6.11039 3.6573 5.96903 3.60246C3.73473 2.72175 3.86535 2.23345 3.91468 2.04965C4.01691 1.66661 4.56281 1.53902 5.68106 1.63685C6.59181 1.71649 7.76737 1.94107 8.99116 2.26872C10.215 2.59665 11.3448 2.98988 12.1731 3.3765C13.1914 3.8513 13.5995 4.23406 13.4967 4.61738C13.3975 4.98719 12.8819 5.03238 12.7124 5.04726C12.7044 5.04809 12.6962 5.04836 12.6882 5.04836C12.5468 5.04836 12.4267 4.94006 12.414 4.79677C12.4005 4.64521 12.5126 4.51156 12.6645 4.49833C12.7819 4.48814 12.8598 4.47215 12.9103 4.45782C12.7923 4.33464 12.4939 4.14257 12.0166 3.91385C11.9166 4.0825 11.8623 4.27622 11.8623 4.47463C11.8623 5.08253 12.3567 5.5769 12.9646 5.5769C13.5725 5.5769 14.0668 5.08253 14.0668 4.47463C14.0668 3.86673 13.5725 3.37237 12.9646 3.37237C12.8122 3.37237 12.689 3.24919 12.689 3.0968C12.689 2.94441 12.8122 2.82123 12.9646 2.82123C13.8764 2.82123 14.618 3.56278 14.618 4.47463C14.618 5.38648 13.8764 6.12803 12.9646 6.12803C12.0527 6.12803 11.3112 5.38648 11.3112 4.47463C11.3112 4.19824 11.3839 3.92901 11.5137 3.68872C10.8543 3.41177 9.9697 3.10176 8.8487 2.80112C8.73048 2.76943 8.61667 2.74049 8.50286 2.71156L1.1061 10.0978C0.949854 10.2538 0.863877 10.4616 0.863877 10.682C0.863877 10.9031 0.949854 11.1106 1.1061 11.2668L6.17239 16.3331C6.48461 16.6453 7.02913 16.6453 7.34135 16.3331L15.5251 8.13774C16.0622 7.60094 16.2714 7.11456 16.2714 6.4036V1.99453C16.2714 1.53875 15.9004 1.16783 15.4447 1.16783H11.0356C10.3246 1.16783 9.83826 1.37699 9.30145 1.91379C9.19371 2.02154 9.01955 2.02154 8.9118 1.91379C8.80405 1.80604 8.80405 1.63189 8.9118 1.52414C9.54781 0.887857 10.183 0.616699 11.0356 0.616699H15.4447C16.2044 0.616699 16.8225 1.2348 16.8225 1.99453Z" fill="black"/>
</g>
<defs>
<clipPath id="clip0_476_62">
<rect width="16.534" height="16.534" fill="white" transform="translate(0.312744 0.616699)"/>
</clipPath>
</defs>
</svg>
