<svg width="12" height="12" viewBox="0 0 12 12" fill="none" xmlns="http://www.w3.org/2000/svg">
<g clip-path="url(#clip0_508_693)">
<path d="M9.35543 1.09618H2.95142C2.77029 1.09618 2.62329 0.949504 2.62329 0.768051C2.62329 0.586598 2.77029 0.439926 2.95142 0.439926H9.35543C9.53656 0.439926 9.68356 0.586598 9.68356 0.768051C9.68356 0.949504 9.53656 1.09618 9.35543 1.09618Z" fill="black"/>
<path d="M6.08963 9.54637C5.15808 9.54637 4.05886 9.17657 3.44429 8.36939C2.96522 7.74004 2.79 6.93614 2.66368 6.23198C2.59772 5.86382 2.55572 5.47172 2.53571 5.03367C2.46385 3.47704 2.53571 2.05298 2.6243 0.746059C2.63677 0.565262 2.79066 0.435981 2.97375 0.440575C3.15455 0.452715 3.29138 0.609559 3.27891 0.790028C3.19196 2.07792 3.12108 3.47934 3.1913 5.00348C3.21 5.41265 3.24872 5.77621 3.30975 6.11615C3.42263 6.74484 3.57586 7.45884 3.96633 7.97203C4.4595 8.62007 5.53477 9.00365 6.46402 8.86354C7.3913 8.72475 8.10629 8.22993 8.53219 7.43325C8.65163 7.20979 8.74744 6.97485 8.80946 6.75304C8.90658 6.40556 8.96827 6.06726 8.98796 5.77457C9.00633 5.50157 9.0106 5.22726 9.01093 4.89914C9.01158 4.34231 9.01585 3.78515 9.01946 3.22832C9.02536 2.40932 9.03127 1.59032 9.02668 0.770013C9.02569 0.588888 9.17171 0.441231 9.35316 0.440247C9.35382 0.440247 9.3548 0.440247 9.3548 0.440247C9.53527 0.440247 9.68194 0.585934 9.68293 0.766731C9.68719 1.58934 9.68161 2.41129 9.67571 3.23325C9.67177 3.78876 9.66783 4.34461 9.66718 4.90012C9.66685 5.24137 9.66226 5.52815 9.64257 5.81887C9.6196 6.16045 9.552 6.53451 9.4411 6.93023C9.36661 7.197 9.25243 7.4782 9.11068 7.74332C8.5906 8.71654 7.68497 9.3449 6.56082 9.51356C6.41152 9.53489 6.25304 9.54637 6.08963 9.54637Z" fill="black"/>
<path d="M5.98749 5.81855C5.83163 5.81855 5.67872 5.7667 5.53238 5.66433C5.22525 5.44973 5.00672 5.23251 4.84496 4.98051C4.60805 4.61269 4.6238 4.19301 4.8886 3.79894L4.93585 3.72773C5.08547 3.50198 5.27119 3.22012 5.59275 3.08231C5.69283 3.03933 5.79783 3.01767 5.9048 3.01767C6.27788 3.01767 6.57877 3.27689 6.79927 3.50297L6.82781 3.53184C7.02699 3.73495 7.27538 3.98794 7.31803 4.362C7.36955 4.81251 6.87572 5.29617 6.72314 5.43398C6.53611 5.60756 6.30741 5.81855 5.98749 5.81855ZM5.90513 3.67425C5.88708 3.67425 5.87035 3.67786 5.85164 3.68573C5.71055 3.74644 5.59505 3.921 5.48316 4.08998L5.43296 4.16545C5.28366 4.38726 5.3273 4.5172 5.39686 4.62515C5.51105 4.80267 5.6738 4.96181 5.90874 5.1262C5.94122 5.14884 5.96977 5.16164 5.98749 5.16164C6.05049 5.16164 6.1801 5.0422 6.2746 4.95492C6.47541 4.7715 6.66146 4.52081 6.66605 4.42959C6.64931 4.28587 6.50888 4.14248 6.35991 3.99089L6.33038 3.9607C6.26082 3.89048 6.0495 3.67425 5.90513 3.67425Z" fill="black"/>
<path d="M8.98231 7.68657C8.85402 7.68657 8.73228 7.6111 8.67978 7.48543C8.60956 7.31841 8.68798 7.12613 8.85533 7.05591C8.93605 7.02178 9.01775 6.99061 9.09945 6.95911C9.21594 6.91449 9.33242 6.87019 9.44497 6.81638C9.85808 6.6195 10.1865 6.26086 10.4487 5.72011C10.7329 5.13408 10.9278 4.3456 11.0288 3.37599C11.0767 2.91563 11.0022 2.51203 10.8349 2.32336C10.7493 2.22657 10.6367 2.18063 10.4812 2.17833C10.1271 2.17275 9.77276 2.17177 9.41872 2.17177C9.23759 2.17177 9.09059 2.0251 9.09059 1.84364C9.09059 1.66219 9.23759 1.51552 9.41872 1.51552C9.77605 1.51552 10.134 1.5165 10.4914 1.52208C10.8297 1.52766 11.1184 1.65366 11.3258 1.88794C11.729 2.34207 11.7218 3.05771 11.6815 3.44391C11.5729 4.48932 11.357 5.3513 11.0393 6.00657C10.7142 6.67692 10.2728 7.14877 9.72716 7.40864C9.59919 7.46967 9.46728 7.52086 9.33505 7.57139C9.25958 7.6006 9.18411 7.62947 9.10962 7.66032C9.06795 7.67836 9.02464 7.68657 8.98231 7.68657Z" fill="black"/>
<path d="M3.01777 7.68656C2.97544 7.68656 2.93246 7.67869 2.89079 7.66097C2.8163 7.6298 2.74083 7.60092 2.66536 7.57205C2.53313 7.52152 2.40122 7.47 2.27358 7.40963C1.72758 7.14942 1.28625 6.67758 0.961082 6.00722C0.643457 5.35196 0.427551 4.48997 0.318941 3.44457C0.278582 3.05836 0.271363 2.34272 0.674629 1.8886C0.882332 1.65432 1.17075 1.52799 1.50905 1.52274C1.86671 1.51716 2.22436 1.51617 2.58202 1.51617C2.76314 1.51617 2.91014 1.66285 2.91014 1.8443C2.91014 2.02575 2.76314 2.17242 2.58202 2.17242C2.22764 2.17242 1.8736 2.17341 1.51922 2.17899C1.36369 2.18161 1.25147 2.22722 1.1655 2.32402C0.99816 2.51269 0.923675 2.91628 0.971582 3.37664C1.07232 4.34592 1.26755 5.13441 1.55171 5.72077C1.81388 6.26119 2.142 6.62016 2.55577 6.81736C2.66799 6.87052 2.78447 6.91514 2.90096 6.95977C2.98266 6.99127 3.06436 7.02244 3.14508 7.05657C3.3121 7.12678 3.39085 7.31906 3.32063 7.48608C3.26747 7.61077 3.14574 7.68656 3.01777 7.68656Z" fill="black"/>
<path d="M6.67262 11.5601C6.14992 11.5601 5.49695 11.5594 5.03429 11.5591L4.49683 11.5588C4.3157 11.5588 4.1687 11.4121 4.1687 11.2306C4.1687 11.0492 4.3157 10.9025 4.49683 10.9025L5.03495 10.9028C5.85756 10.9035 7.28162 10.9048 7.50015 10.9025C7.68718 10.915 7.82992 11.0462 7.83156 11.2274C7.8332 11.4085 7.68784 11.5568 7.50672 11.5588C7.41058 11.5597 7.08147 11.5601 6.67262 11.5601Z" fill="black"/>
<path d="M6.00323 11.5132C5.8244 11.5132 5.67806 11.3694 5.67511 11.19C5.66887 10.766 5.66592 9.95555 5.67117 9.42464C5.67314 9.24483 5.81948 9.10013 5.99929 9.10013C6.00028 9.10013 6.00159 9.10013 6.00257 9.10013C6.1837 9.1021 6.32939 9.25041 6.32742 9.43186C6.32184 9.95785 6.32512 10.7604 6.33135 11.1804C6.33398 11.3616 6.18928 11.5109 6.00815 11.5135C6.00651 11.5132 6.00487 11.5132 6.00323 11.5132Z" fill="black"/>
</g>
<defs>
<clipPath id="clip0_508_693">
<rect width="12" height="12" fill="white"/>
</clipPath>
</defs>
</svg>
